# xmcd
#
# Track frame offsets: 
#        150
#        27675
#        47895
#        80695
#        120067
#        148257
#        167705
#
# Disc length: 2446 seconds
#
# Revision: 1
# Processed by: cddbd v1.5.2PL0 Copyright (c) Steve Scherf et al.
# Submitted via: ExactAudioCopyFreeDBPlugin 1.0
#
DISCID=5d098c07
DTITLE=Mitch Farber - Starclimber
DYEAR=1990
DGENRE=Fusion
TTITLE0=Starclimber
TTITLE1=Lonely Promises
TTITLE2=The Chooser
TTITLE3=Sky Dance
TTITLE4=Monuments
TTITLE5=Time Line
TTITLE6=Theme from "Travels"
EXTD=
EXTT0=
EXTT1=
EXTT2=
EXTT3=
EXTT4=
EXTT5=
EXTT6=
PLAYORDER=
